<?xml version="1.0" encoding="UTF-8" standalone="no"?>

<svg
   version="1.1"
   width="500"
   height="590.862"
   viewBox="0 0 500 590.862"
   xmlns="http://www.w3.org/2000/svg"
   xmlns:svg="http://www.w3.org/2000/svg">
  <path
     style="fill:#000000;stroke-width:1.01191"
     d="M 210.13288,589.31431 C 162.52435,582.83674 111.7537,555.96924 76.268426,518.47416 65.25466,506.8366 57.582584,495.69466 49.024652,478.90882 29.475976,440.56534 20.523804,400.55155 20.497747,351.40123 20.490664,337.67594 20.122481,330.74455 19.376622,330.28359 17.280128,328.98788 9.2099866,315.59618 6.3583547,308.6809 1.7249926,297.44489 -0.00492758,288.19679 1.0538569e-5,274.68935 0.0070939,254.22745 2.7265403,245.76697 19.024731,215.49264 c 2.66885,-4.95746 3.816771,-8.69581 4.660835,-15.17864 1.118535,-8.5908 1.115286,-8.61466 -2.67815,-19.66895 -3.355523,-9.7782 -3.743641,-11.90037 -3.331146,-18.21437 0.641601,-9.82104 5.695614,-19.79552 10.030271,-19.79552 2.061907,0 5.243725,5.49852 6.441148,11.131 1.197687,5.63369 4.034059,10.40738 11.179476,18.81533 10.548844,12.41273 10.841387,13.27204 10.659193,31.30992 -0.135728,13.43748 0.07184,15.61541 1.67728,17.59804 1.629903,2.01285 2.134978,2.12469 4.574803,1.01302 3.874339,-1.76526 6.699469,-8.29198 7.440045,-17.18829 1.042146,-12.51879 -2.270745,-20.35748 -13.930119,-32.96031 -3.156794,-3.41224 -6.436333,-7.55136 -7.287865,-9.19805 -4.499424,-8.70092 -4.911565,-34.89586 -0.700858,-44.54506 3.05543,-7.00176 8.998072,-12.40435 13.644326,-12.40435 3.903583,0 4.131404,0.40831 5.16935,9.26452 0.368902,3.14756 1.52766,7.13196 2.575027,8.85421 1.63647,2.69096 2.494448,3.13137 6.100348,3.13137 7.029038,0 10.812628,-3.18603 13.366041,-11.25509 0.285773,-0.90307 -0.396052,-6.1397 -1.515173,-11.63696 -1.119122,-5.497259 -2.10713,-14.093249 -2.195581,-19.102201 -0.144804,-8.200563 0.134351,-9.708352 2.804123,-15.145931 4.2457,-8.647283 10.084489,-14.705407 14.172995,-14.705407 5.84838,0 7.07135,1.833261 7.18681,10.773155 0.0994,7.693275 0.31483,8.367569 6.74463,21.105797 8.57473,16.987627 11.06611,24.954657 11.10055,35.497727 0.0223,6.82712 -0.49207,9.47556 -3.11021,16.01402 -3.74587,9.35486 -3.83149,10.72352 -0.84631,13.52795 7.55809,7.10044 17.08761,5.70082 21.68242,-3.18456 2.5872,-5.00311 -0.29545,-13.80338 -7.38662,-22.55021 -4.79626,-5.9161 -5.32453,-7.79796 -7.42283,-26.44256 -2.52122,-22.402503 -2.49996,-22.469578 12.28852,-38.767643 7.88088,-8.685356 7.89328,-8.70794 7.89328,-14.384109 0,-4.551108 0.38377,-5.890483 1.92397,-6.714775 4.62165,-2.473429 11.04649,2.850508 15.52559,12.865275 2.47278,5.528832 3.01638,19.391849 0.91238,23.2673 -1.09375,2.014639 -0.91297,2.591639 1.51784,4.844441 1.51772,1.406573 3.47148,2.419234 4.3417,2.25036 1.37445,-0.266723 1.53977,-2.497435 1.25895,-16.987357 -0.3554,-18.338774 1.15272,-30.23737 4.78304,-37.736607 4.16627,-8.606361 16.58335,-20.0995859 19.66056,-18.197769 0.54984,0.339824 0.60062,4.539369 0.12454,10.300755 -1.42041,17.189678 -1.46021,17.057823 8.38281,27.771423 3.92982,4.277403 7.93286,9.951957 9.75673,13.830754 2.9461,6.265465 3.09417,7.201308 3.12215,19.732238 0.0273,12.252266 -0.14223,13.432537 -2.47173,17.202467 -2.12348,3.436537 -2.48448,5.208827 -2.39104,11.738727 0.1805,12.61371 4.32792,19.43777 12.62741,20.7768 2.77498,0.44771 3.85819,0.054 5.92551,-2.15372 4.83669,-5.16515 2.49949,-15.84887 -5.90574,-26.99596 -5.08564,-6.744633 -6.61761,-12.677429 -6.03547,-23.373301 0.62902,-11.557203 3.09655,-16.594991 12.7467,-26.024077 10.03926,-9.80929 22.43185,-27.165645 24.1884,-33.876879 0.72367,-2.764902 1.32197,-7.318495 1.32957,-10.1190957 0.0282,-10.39684704 2.15729,-12.0789535 8.04605,-6.3568891 5.48153,5.3263725 7.46354,10.9604498 7.93289,22.5501398 0.39451,9.741725 0.24117,10.661097 -3.77452,22.630375 -6.7646,20.162823 -7.77721,33.674573 -3.10005,41.365569 3.2504,5.344846 11.79913,6.067248 16.47425,1.392134 1.67365,-1.673658 1.75194,-2.38672 0.69535,-6.333059 -0.65486,-2.445878 -2.73927,-7.222966 -4.63202,-10.615753 -3.23749,-5.803218 -3.4405,-6.732501 -3.42643,-15.684599 0.0165,-10.485864 1.86234,-19.951075 5.16734,-26.497239 5.18943,-10.278601 12.79595,-17.929539 17.82544,-17.929539 1.86279,0 2.06227,0.829515 2.49424,10.372073 0.76426,16.883029 4.11932,21.900241 20.23015,30.252544 15.52316,8.047632 21.06721,16.370899 21.0419,31.590144 -0.0233,13.980372 -5.41341,27.159992 -15.50007,37.899712 -9.10104,9.69027 -12.01039,16.08825 -9.87262,21.71102 2.31155,6.07985 9.69512,7.69167 17.63263,3.84918 6.39546,-3.096 7.85269,-5.6363 8.83759,-15.40609 1.36721,-13.56226 5.03477,-19.1884 20.02212,-30.71457 8.88153,-6.830439 11.58974,-10.976678 12.45421,-19.067304 0.55017,-5.148951 1.3463,-7.647579 2.99637,-9.403996 2.60921,-2.777371 7.56263,-3.175693 11.85956,-0.953666 5.78726,2.992709 11.14974,18.203639 9.85594,27.956816 -0.34764,2.62058 -1.72036,7.96441 -3.0505,11.87518 -2.82264,8.29891 -4.71988,19.6646 -4.00588,23.99788 1.34234,8.14686 2.67659,11.43181 5.08986,12.53138 3.4599,1.57643 19.75537,1.46266 21.96541,-0.15336 1.15142,-0.84195 2.09286,-3.67348 2.73948,-8.23949 1.76255,-12.44579 7.39626,-18.73999 13.80649,-15.42513 4.46581,2.30936 5.36047,5.4748 5.36047,18.9662 0,22.13518 -4.00641,34.31764 -15.61116,47.46948 -7.70544,8.73271 -12.73235,17.90873 -12.70009,23.18256 0.0281,4.59926 2.82298,10.79435 7.03285,15.58914 5.71556,6.50965 8.10129,4.37676 8.13853,-7.27602 0.0408,-12.75157 6.79118,-28.21227 16.67676,-38.19526 9.04617,-9.13531 21.29776,-14.61006 29.32492,-13.10416 5.59021,1.04873 5.65268,3.79285 0.43675,19.18478 -7.07797,20.88673 -6.26665,27.67229 5.71402,47.79008 11.31677,19.00298 15.4129,32.85776 14.31476,48.41844 -1.05917,15.00864 -6.82748,27.04744 -18.64598,38.91527 -7.09778,7.12739 -7.44822,7.69471 -6.87586,11.131 1.45903,8.75947 -2.82121,58.35206 -6.68802,77.49024 -7.74824,38.3488 -28.22086,75.07383 -57.38067,102.93294 -32.8252,31.36101 -82.88587,57.88642 -126.65426,67.1097 -21.69482,4.57172 -52.33622,5.78777 -73.45053,2.91497 z m 12.87945,-69.85775 c 0.9001,-12.7812 1.80781,-14.15433 8.96369,-13.55963 3.88503,0.32288 5.05955,1.8854 5.05955,6.73102 0,4.4924 2.00288,12.50903 3.12527,12.50903 1.8136,0 4.13534,-4.47974 5.06907,-9.78063 0.58367,-3.31353 1.44313,-6.64255 1.90991,-7.39782 0.90287,-1.46085 8.88721,-1.92588 10.9696,-0.6389 0.69957,0.43236 1.19453,3.31049 1.20365,6.99905 0.008,3.44559 0.44742,6.94775 0.97532,7.78257 1.89842,3.00219 4.38696,-1.38187 5.22236,-9.20022 0.97701,-9.14386 2.5298,-11.03797 9.04887,-11.03797 7.65151,0 9.90982,4.24402 10.36753,19.48364 0.0957,3.18872 0.41991,5.80136 0.72031,5.8059 0.3004,0.004 4.85399,-1.33844 10.1191,-2.98433 15.39078,-4.8112 44.32532,-16.87294 52.9339,-22.06616 20.25258,-12.21762 37.3527,-31.61435 51.17723,-58.05057 9.92972,-18.98827 14.24206,-35.81493 14.24206,-55.57213 v -11.96913 l -4.76503,-0.71457 c -2.62078,-0.39301 -22.73692,-0.47507 -44.70257,-0.18237 -35.41323,0.4719 -40.07461,0.71968 -41.14776,2.1873 -0.66564,0.9103 -1.52667,4.94886 -1.91343,8.97457 -1.27136,13.23364 -3.75372,20.43252 -9.33139,27.0612 -3.43703,4.08467 -11.70551,8.06267 -16.78622,8.07591 -4.50635,0.0117 -4.43008,-0.56866 -2.12898,16.20044 2.30587,16.80381 2.67649,26.34076 1.13824,29.28998 -1.92035,3.68179 -7.12764,6.29551 -12.5425,6.29551 -7.16519,0 -8.56644,-1.96944 -9.21394,-12.95011 -0.35205,-5.97012 -1.04711,-9.56744 -2.07619,-10.74545 -2.85643,-3.26979 -3.57161,-2.03443 -2.92911,5.05955 0.72234,7.97556 -0.40253,13.93206 -3.14987,16.67939 -2.69533,2.69534 -13.32889,3.70704 -15.5559,1.48002 -1.98319,-1.98319 -2.87117,-10.13177 -3.80063,-34.87675 -0.72129,-19.20285 -1.68185,-24.0405 -3.93546,-19.82004 -0.55198,1.03371 -1.52152,10.98666 -2.15453,22.11767 -1.63004,28.66314 -1.92562,30.64856 -5.09002,34.19014 -2.12619,2.37962 -3.75267,3.10721 -7.81956,3.49798 -4.28157,0.41141 -5.49084,0.13754 -7.27624,-1.64787 -1.86577,-1.86577 -2.14128,-3.32261 -2.14128,-11.32266 0,-8.1989 -0.18949,-9.14506 -1.77085,-8.84189 -1.38808,0.26612 -1.91393,1.78353 -2.43289,7.02046 -1.09295,11.02942 -4.16956,15.05045 -11.51553,15.05045 -2.86479,0 -4.48793,-0.77853 -7.12861,-3.41921 l -3.4192,-3.4192 0.49061,-14.03624 c 0.26985,-7.71991 0.77547,-16.44674 1.12362,-19.39294 0.76233,-6.45119 0.59195,-6.61983 -11.97977,-11.85688 -4.84281,-2.01739 -10.01795,-4.622 -11.50031,-5.78804 -3.87387,-3.04718 -8.53518,-14.13538 -9.4832,-22.55841 -0.93661,-8.32146 -4.17326,-15.34978 -7.6834,-16.68432 -3.06439,-1.16509 -20.73975,-1.58371 -52.902194,-1.25297 l -24.60008,0.25298 0.631128,7.33634 c 1.065622,12.38686 3.569552,26.20097 6.152977,33.94587 11.413329,34.21608 41.996789,69.52758 74.836249,86.40551 7.55564,3.88324 35.87737,14.99153 38.22245,14.99153 0.38334,0 0.69952,-2.39062 0.70263,-5.31252 0.009,-8.14767 1.64146,-12.7017 5.36898,-14.97452 4.32384,-2.63642 8.08653,-2.48441 11.51844,0.46535 2.73564,2.35132 2.852,2.84024 3.19093,13.40781 0.37118,11.57272 0.84867,12.69385 5.21374,12.24152 2.43988,-0.2528 2.55286,-0.58984 3.17923,-9.48424 z M 206.00486,392.53854 c 7.35505,-2.77163 11.12976,-5.28368 14.41846,-9.59538 2.29717,-3.01174 2.85843,-4.80674 2.89996,-9.27452 0.0469,-5.05597 -0.25016,-5.80968 -3.40134,-8.62693 -3.38538,-3.02665 -3.61462,-3.07686 -11.73344,-2.57035 -9.86647,0.61555 -14.36336,2.52321 -20.97873,8.89959 -4.71771,4.54726 -4.81732,4.77131 -4.81732,10.83488 0,3.40539 0.43737,7.34197 0.97193,8.74797 1.86728,4.91134 11.94147,5.61649 22.64048,1.58474 z m 81.78351,-0.0547 c 8.29786,-4.20462 9.86566,-10.17357 4.93172,-18.77616 -4.7029,-8.19977 -6.92389,-9.46429 -16.623,-9.46429 -7.72373,0 -8.54593,0.21593 -13.48351,3.5411 -7.85115,5.28727 -9.26623,11.53846 -4.3972,19.42487 2.7254,4.41434 6.15663,6.45184 12.45421,7.39543 6.66793,0.99907 12.34969,0.29508 17.11778,-2.12095 z m -131.94826,-63.9103 c 0.61117,-1.25224 1.33508,-7.28575 1.6087,-13.4078 0.96585,-21.61064 7.2472,-37.4656 19.86575,-50.14386 8.72977,-8.77105 16.97883,-13.51638 30.91926,-17.78649 8.62257,-2.64117 10.11672,-2.78117 30.31961,-2.8407 24.09989,-0.071 27.93034,0.6255 43.00616,7.82022 7.12116,3.39848 10.17602,5.6853 17.75292,13.28963 7.68547,7.71328 9.90744,10.72498 13.8688,18.79795 5.36843,10.94048 8.6243,22.35466 9.5253,33.39302 1.01172,12.39498 -4.1473,11.19152 46.67742,10.88863 l 44.22977,-0.26358 -0.27019,-6.07146 c -0.37388,-8.40148 -2.62167,-15.57267 -8.40525,-26.8156 -7.14268,-13.88494 -16.46161,-25.76161 -33.76737,-43.03541 -25.41444,-25.36754 -49.06464,-42.96245 -68.0191,-50.60385 -24.51197,-9.88187 -60.03885,-13.27076 -84.83665,-8.09253 -25.3647,5.29662 -51.13361,17.9545 -73.94943,36.32448 -9.32796,7.51034 -27.70278,25.95128 -36.75942,36.89171 -11.01388,13.30476 -21.626343,31.99183 -27.297449,48.067 -2.571222,7.28832 -2.939314,9.33091 -2.005919,11.131 2.542818,4.90396 1.118302,4.73445 39.786078,4.73445 h 36.6398 z"
     />
</svg>
