<?xml version="1.0" encoding="UTF-8" standalone="no"?>
<svg
    fill="#000000"
    version="1.1"
    viewBox="0 0 170.668 85.334"
    xml:space="preserve"
    width="170.668"
    height="85.334"
    xmlns="http://www.w3.org/2000/svg"
    xmlns:svg="http://www.w3.org/2000/svg"><defs
/>
    <g transform="translate(-170.666)">
       <path
           d="M 324.267,0 H 187.733 c -9.387,0 -17.067,7.68 -17.067,17.067 v 25.6 c 0,9.387 7.68,17.067 17.067,17.067 H 192 l 11.947,17.92 c 3.413,5.12 8.533,7.68 14.507,7.68 H 294.4 c 5.973,0 11.093,-2.56 14.507,-7.68 L 320,59.733 h 4.267 c 9.387,0 17.067,-7.68 17.067,-17.067 v -25.6 C 341.333,7.68 333.653,0 324.267,0 Z m -34.134,51.2 h -68.267 c -5.12,0 -8.533,-3.413 -8.533,-8.533 0,-5.12 3.413,-8.533 8.533,-8.533 h 68.267 c 5.12,0 8.533,3.413 8.533,8.533 0,5.12 -3.413,8.533 -8.533,8.533 z"
       />
    </g>
</svg>
